<?xml version="1.0" encoding="UTF-8" ?>
<!DOCTYPE svg PUBLIC "-//W3C//DTD SVG 1.1//EN" "http://www.w3.org/Graphics/SVG/1.1/DTD/svg11.dtd">
<svg width="397pt" height="397pt" viewBox="0 0 397 397" version="1.1" xmlns="http://www.w3.org/2000/svg">
<path fill="#000000" d=" M 0.00 0.00 L 397.00 0.00 L 397.00 397.00 L 0.00 397.00 L 0.00 0.00 Z" />
<path fill="#ffffff" d=" M 162.50 20.65 C 187.55 10.40 215.88 7.67 242.17 14.56 C 269.81 21.56 294.37 38.82 311.36 61.58 C 331.93 88.83 342.38 122.89 343.55 156.81 C 344.98 198.24 333.04 239.95 310.23 274.53 C 298.55 264.50 287.29 253.94 275.95 243.50 C 292.29 216.16 300.12 183.72 297.78 151.94 C 295.89 127.35 287.51 102.66 271.12 83.91 C 258.65 69.49 241.02 59.44 222.04 56.97 C 201.72 54.11 180.90 59.93 163.66 70.69 C 140.75 84.93 123.38 106.98 112.46 131.44 C 99.14 161.47 94.72 195.84 102.29 227.98 C 107.33 249.28 118.04 269.78 134.94 284.04 C 147.41 294.67 163.27 301.27 179.63 302.40 C 193.39 303.42 207.28 300.62 219.90 295.14 C 214.31 280.06 208.74 264.99 203.15 249.91 C 237.31 263.08 271.54 276.06 305.68 289.28 C 288.15 321.39 270.93 353.68 253.47 385.84 C 247.52 369.78 241.58 353.73 235.64 337.67 C 212.58 347.33 186.71 350.77 162.08 345.96 C 133.95 340.71 108.20 324.92 89.98 302.96 C 69.48 278.57 57.74 247.57 54.28 216.07 C 49.57 173.13 59.71 128.86 81.87 91.85 C 100.60 60.66 128.57 34.41 162.50 20.65 Z" />
</svg>
